<svg version="1.0" xmlns="http://www.w3.org/2000/svg" width="3000.000000pt" height="3000.000000pt" viewBox="0 0 3000.000000 3000.000000" preserveAspectRatio="xMidYMid meet">
    <g transform="translate(0.000000,3000.000000) scale(0.100000,-0.100000)" fill="#000000" stroke="none">
        <path d="M23477 18595 c-58 -44 -123 -144 -199 -304 -98 -204 -150 -386 -207 -721 -12 -69 -26 -138 -31 -155 -5 -16 -18 -97 -30 -180 -11 -82 -23 -165 -28 -184 l-7 -33 -220 2 c-121 1 -247 3 -280 5 -33 2 -339 6 -680 9 -341 4 -714 8 -830 11 -115 3 -462 7 -770 10 -308 3 -670 7 -805 10 -135 3 -481 7 -770 10 -289 3 -644 7 -790 10 -146 3 -503 7 -795 10 -291 3 -647 7 -790 10 -143 3 -512 7 -820 10 -308 3 -643 7 -745 10 -169 4 -1418 19 -1690 20 -98 0 -120 -3 -148 -20 -97 -58 -92 -178 9 -230 35 -18 185 -24 854 -30 501 -5 2140 -25 3255 -40 228 -3 593 -7 810 -10 217 -3 568 -7 780 -10 212 -3 572 -7 800 -10 228 -3 584 -7 790 -10 206 -3 578 -7 825 -10 248 -3 590 -7 760 -10 171 -3 515 -8 765 -11 250 -4 457 -8 459 -10 7 -6 4 -54 -29 -524 -39 -539 -37 -830 5 -1224 37 -334 57 -399 156 -496 144 -141 300 -149 432 -22 42 40 86 102 116 160 45 88 125 371 155 547 52 302 123 858 141 1095 3 41 7 86 10 100 2 14 12 129 20 255 9 127 23 284 31 350 25 190 31 758 10 916 -29 214 -47 278 -128 469 -59 137 -89 183 -146 227 -41 31 -49 33 -121 33 -74 0 -81 -2 -124 -35z m159 -347 c44 -99 72 -194 96 -328 20 -116 17 -714 -5 -890 -9 -74 -24 -238 -32 -365 -9 -126 -20 -261 -26 -300 -5 -38 -16 -131 -24 -205 -37 -350 -93 -757 -131 -960 -48 -258 -121 -468 -182 -523 -25 -23 -50 -12 -83 34 -42 60 -89 552 -89 939 0 150 19 462 70 1160 22 299 100 866 150 1090 19 86 107 346 136 402 16 30 42 49 63 45 8 -1 34 -46 57 -99z"/>
        <path d="M17307 5128 c39 -61 618 -614 692 -660 l29 -19 6 158 c4 87 9 167 11 178 4 21 -34 40 -693 332 -30 13 -50 18 -45 11z"/>
    </g>
</svg>
