<svg version="1.0" xmlns="http://www.w3.org/2000/svg"  width="615.000000pt" height="615.000000pt" viewBox="0 0 615.000000 615.000000"  preserveAspectRatio="xMidYMid meet">
	<g transform="translate(0.000000,615.000000) scale(0.100000,-0.100000)"fill="#000000" stroke="none">
		<path d="M3048 5979 c-36 -19 -38 -22 -97 -206 -33 -104 -75 -236 -93 -295
		-18 -60 -36 -107 -39 -105 -3 1 -90 95 -192 208 -120 134 -195 209 -212 213
		-34 9 -75 -12 -94 -46 -14 -25 -12 -49 33 -318 27 -159 47 -292 45 -294 -2 -2
		-60 -22 -129 -45 -145 -49 -441 -192 -518 -251 l-52 -40 -264 0 -263 0 -27
		-26 c-42 -43 -35 -71 54 -219 l80 -133 -54 -72 c-29 -40 -77 -112 -106 -161
		-38 -64 -65 -98 -100 -123 -63 -45 -100 -118 -100 -197 0 -48 -3 -59 -19 -64
		-35 -11 -139 -83 -155 -107 -8 -13 -24 -81 -36 -153 -26 -162 -42 -266 -75
		-470 -49 -306 -67 -420 -80 -500 -7 -44 -9 -89 -5 -100 4 -11 27 -44 50 -73
		39 -50 40 -55 26 -71 -9 -10 -16 -32 -16 -50 0 -42 254 -683 281 -707 11 -10
		44 -24 72 -29 l51 -10 18 -60 c25 -87 41 -97 228 -142 l162 -38 53 -65 c78
		-95 276 -285 385 -370 90 -69 348 -244 373 -253 7 -2 1 -23 -18 -59 l-29 -55
		40 -133 c31 -105 44 -137 64 -151 40 -28 314 -44 790 -43 434 0 724 15 772 40
		28 14 30 21 98 251 19 65 19 75 6 101 -14 26 -13 29 25 70 22 23 79 68 127
		101 207 139 438 344 567 502 l54 65 128 28 c160 35 226 60 241 89 6 12 17 44
		25 72 14 49 15 50 65 60 27 5 60 18 71 29 25 22 284 669 284 708 0 15 -7 36
		-17 47 -17 18 -16 22 30 81 36 46 48 69 47 93 -1 18 -20 147 -42 287 -23 140
		-50 311 -61 380 -11 69 -33 210 -50 314 -17 107 -37 200 -46 213 -16 25 -120
		97 -155 108 -16 5 -19 16 -19 64 0 79 -37 152 -100 197 -35 25 -62 59 -100
		123 -29 49 -77 121 -106 161 l-54 72 80 133 c89 148 96 176 54 219 l-27 26
		-263 0 -264 0 -52 40 c-75 58 -371 202 -513 249 -74 25 -119 46 -118 53 1 7
		23 140 49 296 52 312 52 319 -8 348 -25 11 -40 13 -59 5 -14 -5 -109 -102
		-210 -214 -101 -113 -186 -206 -189 -206 -6 -1 -20 41 -130 385 -33 105 -68
		198 -78 206 -38 34 -55 37 -94 17z m207 -621 c28 -87 52 -158 55 -158 3 0 107
		112 230 249 124 138 226 249 227 247 2 -1 -13 -94 -32 -207 -119 -699 -121
		-714 -136 -710 -8 2 -43 12 -79 23 -174 50 -484 68 -678 39 -79 -11 -239 -50
		-272 -64 -13 -6 -27 65 -93 454 -43 254 -77 462 -75 464 2 1 104 -109 227
		-246 124 -137 228 -246 232 -242 3 5 53 154 109 333 56 179 104 332 107 340 5
		14 58 -141 178 -522z m-796 -402 c7 -37 11 -69 9 -70 -2 -1 -37 -12 -78 -25
		-41 -13 -115 -41 -164 -62 l-89 -39 -171 0 -171 0 25 20 c36 28 262 143 355
		181 128 51 259 89 266 75 4 -6 12 -42 18 -80z m1496 12 c108 -43 334 -156 375
		-188 l25 -20 -171 0 -171 0 -89 39 c-49 21 -123 49 -164 62 -41 13 -76 24 -78
		25 -3 2 16 117 24 146 4 15 11 15 77 -4 40 -11 117 -38 172 -60z m973 -280
		c-41 -64 -180 -302 -206 -354 -37 -73 -68 -172 -77 -244 -11 -89 16 -181 123
		-433 121 -284 173 -438 221 -657 50 -228 67 -448 51 -648 -7 -79 -10 -146 -7
		-148 5 -5 395 63 409 72 4 3 8 1 8 -4 0 -14 -241 -616 -250 -626 -5 -5 -37
		-14 -71 -20 l-62 -11 -21 -79 c-25 -92 -9 -83 -233 -131 l-132 -29 -73 -89
		c-86 -106 -223 -238 -351 -341 -109 -87 -301 -219 -304 -208 -2 4 8 42 21 84
		l23 77 -28 43 c-16 24 -29 46 -29 50 0 4 19 8 43 10 41 3 42 4 58 52 15 43 29
		59 125 136 60 48 118 98 129 110 l20 23 -35 -6 c-60 -11 -477 -46 -669 -57
		-237 -13 -835 -13 -1072 0 -191 11 -608 46 -669 57 l-35 6 25 -27 c14 -15 71
		-64 127 -108 61 -49 104 -91 108 -105 8 -32 64 -82 93 -83 12 0 22 -2 22 -4 0
		-3 -14 -25 -30 -50 l-31 -45 25 -83 c14 -45 24 -83 23 -84 -2 -2 -50 29 -107
		68 -215 144 -412 319 -549 486 l-74 90 -81 16 c-44 9 -121 27 -170 39 l-90 23
		-20 79 -21 80 -63 11 c-35 6 -67 15 -72 20 -8 8 -236 575 -247 615 -4 14 4 14
		80 -2 145 -29 330 -60 334 -55 2 2 -1 67 -7 144 -19 237 10 500 85 788 45 171
		93 305 199 551 54 124 94 232 104 281 14 72 14 85 0 158 -25 129 -89 259 -270
		552 l-20 32 1867 0 1867 0 -14 -22z m-3518 -435 l30 -71 -51 -85 -51 -85 -47
		29 c-26 16 -65 33 -88 37 l-42 7 47 77 c26 43 69 108 96 145 56 77 49 80 106
		-54z m3468 9 c32 -48 70 -108 85 -133 l26 -46 -40 -6 c-23 -3 -63 -19 -89 -35
		l-49 -30 -50 84 -50 83 23 58 c43 107 58 134 72 122 7 -6 39 -50 72 -97z
		m-3631 -248 c19 -9 46 -32 60 -51 48 -63 40 -204 -11 -188 -64 20 -178 35
		-227 31 l-57 -5 -6 31 c-13 67 35 156 99 184 41 18 100 17 142 -2z m3796 2
		c66 -27 114 -116 101 -184 l-6 -31 -57 5 c-49 4 -164 -11 -227 -31 -25 -8 -44
		28 -44 86 0 124 119 203 233 155z m-3886 -278 c-3 -13 -58 -340 -123 -728 -65
		-388 -119 -707 -120 -709 -2 -1 -24 4 -51 13 -70 23 -147 79 -192 139 l-39 52
		89 555 c49 305 91 564 93 575 6 24 98 82 170 107 28 9 80 17 115 18 60 0 63
		-1 58 -22z m4009 4 c72 -25 164 -83 170 -107 2 -11 44 -270 93 -575 l89 -555
		-39 -52 c-21 -29 -60 -66 -85 -84 -55 -38 -144 -73 -154 -62 -4 4 -60 323
		-125 708 -64 385 -119 710 -122 723 -5 21 -3 22 58 22 35 -1 87 -9 115 -18z
		m-3883 -14 c9 -5 24 -20 33 -33 16 -24 15 -30 -26 -128 -166 -397 -256 -855
		-232 -1176 8 -105 9 -104 -59 -99 -32 2 -43 7 -42 18 7 49 234 1399 238 1417
		4 19 10 22 38 16 17 -3 40 -10 50 -15z m3672 0 c3 -13 54 -318 115 -678 60
		-360 114 -676 118 -702 5 -26 7 -50 4 -53 -3 -3 -27 -5 -53 -5 l-47 0 0 178
		c0 97 -5 222 -11 277 -32 268 -107 548 -218 814 -24 58 -41 112 -38 121 11 34
		55 60 117 69 4 1 10 -9 13 -21z m-2732 -2536 c38 -33 4 -58 -37 -27 -10 8 -23
		12 -28 9 -14 -9 12 -34 36 -34 36 0 68 -37 64 -73 -3 -30 -6 -32 -44 -35 -35
		-3 -45 1 -63 24 -11 15 -21 31 -21 36 0 11 44 -1 48 -13 2 -5 13 -9 24 -9 33
		0 14 24 -28 36 -29 8 -43 19 -56 44 -25 49 -11 70 44 63 24 -3 51 -12 61 -21z
		m1823 12 c-3 -9 -6 -20 -6 -26 0 -6 -12 -8 -29 -5 -15 3 -33 1 -40 -6 -17 -17
		-13 -25 13 -20 21 4 23 2 19 -21 -4 -18 -12 -26 -31 -28 -14 -2 -27 -9 -30
		-16 -3 -10 4 -12 32 -7 39 8 42 4 26 -26 -9 -15 -22 -19 -65 -19 -30 0 -55 4
		-55 8 0 5 7 23 15 40 14 26 22 68 24 119 1 7 21 13 49 16 26 2 55 4 66 5 13 1
		16 -3 12 -14z m-1674 -18 c4 -6 8 -17 8 -25 0 -13 -14 -12 -52 4 -13 5 -18 2
		-18 -8 0 -10 11 -17 28 -19 21 -2 28 -9 30 -30 3 -22 0 -26 -17 -21 -15 4 -21
		1 -21 -12 0 -14 6 -16 35 -11 20 4 35 3 35 -3 0 -5 3 -16 6 -25 5 -14 -3 -16
		-54 -16 -51 0 -62 3 -67 19 -3 10 -5 23 -3 27 3 13 -13 87 -21 99 -4 6 -11 18
		-14 28 -6 16 -2 17 56 11 34 -4 65 -12 69 -18z m1517 10 c9 -11 8 -29 -4 -78
		-22 -85 -36 -98 -101 -98 l-52 0 19 55 c10 30 19 70 19 89 0 34 1 35 43 39 23
		2 47 4 53 5 6 1 17 -4 23 -12z m-1419 -36 c37 -47 49 -47 25 -1 l-16 31 36 0
		c19 0 35 -3 36 -7 0 -5 2 -34 4 -67 2 -32 8 -63 14 -69 20 -20 12 -37 -17 -37
		-21 0 -33 9 -52 40 -14 22 -28 40 -33 40 -4 0 -7 -3 -5 -7 2 -5 10 -20 18 -35
		16 -34 14 -37 -28 -31 -27 5 -32 9 -30 32 2 37 -12 110 -23 117 -19 11 -9 34
		15 34 16 0 35 -13 56 -40z m1270 25 c15 -18 6 -45 -15 -45 -17 0 -20 -16 -5
		-25 18 -11 11 -58 -12 -82 -37 -39 -108 -27 -108 19 0 13 8 18 25 18 14 0 25
		-4 25 -10 0 -16 27 -12 33 5 7 18 -6 27 -27 19 -9 -3 -23 -1 -31 6 -41 34 7
		110 68 110 19 0 40 -7 47 -15z m-1048 -12 c18 -21 32 -132 20 -151 -6 -9 -26
		-12 -63 -10 l-54 3 -2 57 c-1 32 -7 66 -13 77 -18 35 -12 41 43 41 39 0 58 -5
		69 -17z m151 -10 c20 -19 25 -131 5 -151 -16 -16 -70 -15 -92 1 -26 19 -39
		135 -18 160 19 22 75 16 105 -10z m605 7 c17 -28 -1 -140 -25 -157 -9 -7 -38
		-13 -65 -13 -41 0 -48 3 -48 19 0 11 5 23 11 27 8 4 10 29 6 70 -2 35 -3 64
		-2 66 2 2 27 4 57 6 44 2 55 -1 66 -18z m155 0 c-5 -21 -12 -23 -49 -21 -12 1
		-24 -5 -27 -14 -5 -12 -1 -14 19 -9 23 6 25 4 22 -22 -2 -23 -8 -29 -25 -28
		-14 0 -23 -5 -23 -14 0 -10 8 -12 30 -7 27 6 30 4 30 -19 0 -25 -2 -26 -61
		-26 l-61 0 8 38 c5 20 9 55 10 77 1 22 2 46 3 53 1 8 21 12 65 12 59 0 64 -2
		59 -20z m-575 -2 c7 -7 12 -20 12 -29 0 -23 -38 -32 -49 -12 -5 9 -15 13 -24
		10 -12 -4 -14 -16 -10 -49 7 -51 7 -52 29 -44 13 5 15 9 6 18 -21 21 -13 38
		18 38 28 0 30 -2 30 -38 0 -47 -14 -62 -59 -62 -54 0 -71 22 -71 95 0 34 5 66
		12 73 16 16 90 16 106 0z m152 -8 c12 -22 3 -128 -13 -147 -12 -16 -79 -17
		-95 -1 -26 26 -14 40 28 33 33 -6 40 -4 40 9 0 9 -7 16 -15 16 -8 0 -15 9 -15
		20 0 11 7 20 15 20 8 0 15 7 15 15 0 8 -9 15 -20 15 -11 0 -20 -4 -20 -10 0
		-5 -9 -10 -20 -10 -13 0 -20 7 -20 18 0 29 21 42 67 42 32 0 45 -5 53 -20z
		m84 -27 c-5 -27 -7 -67 -7 -90 1 -40 0 -43 -25 -43 l-27 0 0 90 0 90 33 0 33
		0 -7 -47z m-778 -159 c46 -5 56 -11 107 -62 l56 -57 12 -91 11 -90 -66 -101
		c-36 -55 -66 -103 -66 -106 0 -4 37 -7 83 -9 l82 -3 11 -85 c6 -47 10 -87 8
		-89 -6 -6 -352 14 -359 21 -3 3 -16 40 -29 82 l-24 76 50 83 c28 45 71 111 97
		147 37 50 46 71 41 90 -7 29 -42 50 -86 50 -37 0 -47 -16 -34 -59 l9 -31 -48
		0 c-100 0 -109 5 -131 79 l-20 66 35 53 35 52 88 -5 c48 -3 110 -8 138 -11z
		m1433 -32 c17 -27 31 -55 31 -63 0 -8 -12 -52 -25 -99 -25 -84 -26 -85 -133
		-192 -59 -60 -109 -111 -112 -114 -3 -4 32 -4 78 -2 65 2 81 0 77 -10 -3 -7
		-14 -46 -26 -87 -25 -87 -9 -81 -237 -91 l-153 -7 7 64 c3 35 13 79 21 97 9
		18 85 100 170 182 136 131 154 152 151 177 -4 33 -30 40 -83 23 -30 -10 -36
		-17 -41 -50 l-6 -38 -77 -5 c-42 -2 -77 -4 -79 -2 -1 1 2 33 7 70 9 65 13 72
		64 123 l55 55 108 7 c60 4 123 8 140 8 28 2 36 -4 63 -46z m-834 -36 l50 -54
		-5 -233 -5 -234 -40 -57 -40 -58 -106 0 -106 0 -46 57 c-54 66 -48 46 -83 320
		l-27 212 41 53 41 53 138 -3 138 -3 50 -53z m325 37 c0 -16 -11 -127 -25 -248
		-31 -277 -31 -265 1 -265 19 0 24 -4 20 -17 -2 -10 -7 -43 -11 -74 l-6 -56
		-46 -7 c-25 -3 -79 -6 -119 -6 l-74 0 0 75 0 75 29 0 c17 0 32 3 34 8 3 4 8
		73 12 155 l7 147 -36 0 -36 0 0 51 c0 48 3 55 57 113 49 53 62 62 102 67 90
		12 91 11 91 -18z m-1038 -241 l47 -7 -27 -31 -27 -32 -65 39 -65 39 45 -1 c25
		0 66 -4 92 -7z"/>
		<path d="M1599 4493 c15 -32 40 -90 54 -129 l26 -71 -44 -59 c-24 -32 -41 -62
		-38 -67 3 -6 14 6 25 26 25 49 125 143 201 190 97 60 182 82 312 81 207 -1
		385 -86 513 -244 67 -82 234 -270 241 -270 3 0 5 135 3 300 l-3 300 -659 0
		-660 0 29 -57z"/>
		<path d="M3260 3865 l0 -685 465 0 c256 0 465 -4 465 -8 0 -4 -5 -13 -11 -19
		-8 -8 -7 -13 2 -18 7 -5 19 2 31 18 19 26 24 27 105 27 57 0 96 -5 119 -16 19
		-9 34 -18 34 -21 0 -9 -45 -42 -59 -43 -8 0 -11 7 -8 20 3 11 1 20 -3 20 -12
		0 -23 -38 -15 -51 4 -6 -4 -22 -16 -37 -33 -36 -5 -16 94 70 43 38 82 68 87
		68 6 0 10 -17 10 -39 0 -50 30 -88 81 -101 50 -14 58 -8 84 60 11 29 25 54 32
		57 14 6 6 66 -13 103 -7 14 -24 57 -37 95 -21 60 -111 277 -122 296 -3 3 -29
		-2 -58 -12 -223 -75 -778 -135 -1025 -111 -186 19 -226 36 -220 96 3 27 11 35
		65 63 35 17 95 40 134 50 l71 18 -5 58 c-5 52 -3 59 17 72 106 69 518 125 706
		96 91 -14 106 -27 109 -88 1 -26 2 -47 4 -48 1 -1 28 -5 61 -9 57 -6 58 -6 52
		16 -4 13 -14 50 -24 83 -11 41 -17 95 -17 170 1 128 23 220 85 352 l39 83
		-660 0 -659 0 0 -685z"/>
		<path d="M2037 4404 c-14 -4 -17 -14 -15 -42 3 -35 3 -35 99 -67 l95 -32 90
		16 c88 16 89 17 92 48 3 30 1 32 -60 53 -47 16 -91 23 -173 26 -60 1 -118 0
		-128 -2z"/>
		<path d="M1875 4347 c-33 -17 -87 -59 -120 -91 -54 -53 -58 -60 -40 -67 41
		-16 62 -7 154 64 77 59 95 77 96 100 1 36 -15 35 -90 -6z"/>
		<path d="M2450 4301 c0 -10 29 -55 65 -100 48 -58 80 -88 116 -107 28 -14 53
		-24 55 -21 6 5 -48 87 -87 132 -37 42 -126 115 -140 115 -5 0 -9 -9 -9 -19z"/>
		<path d="M1913 4213 c-48 -37 -90 -68 -92 -70 -8 -7 30 -178 42 -189 11 -11
		160 -54 184 -54 9 0 125 91 166 130 14 13 -14 180 -32 189 -9 5 -53 20 -98 34
		l-82 25 -88 -65z"/>
		<path d="M2327 4231 c-43 -9 -78 -19 -78 -24 -1 -14 13 -132 17 -148 5 -17 12
		-21 126 -63 l68 -25 40 57 c22 31 38 62 35 70 -6 17 -118 151 -125 150 -3 0
		-40 -8 -83 -17z"/>
		<path d="M1662 4123 c-26 -48 -42 -132 -41 -212 1 -127 5 -135 62 -139 l48 -3
		38 82 37 82 -22 94 c-12 52 -24 96 -25 98 -2 1 -23 6 -46 10 -34 5 -43 3 -51
		-12z"/>
		<path d="M1550 4081 c0 -6 4 -13 10 -16 6 -3 7 1 4 9 -7 18 -14 21 -14 7z"/>
		<path d="M2540 3998 l-43 -61 17 -86 c9 -47 19 -93 22 -102 2 -8 26 -23 53
		-33 l49 -17 44 46 c54 59 61 78 53 140 -14 117 -12 113 -83 145 -35 17 -66 30
		-67 30 -1 0 -22 -28 -45 -62z"/>
		<path d="M2754 4026 c7 -29 120 -166 136 -166 21 0 -12 54 -74 121 -59 64 -67
		70 -62 45z"/>
		<path d="M2172 3928 l-81 -68 15 -48 c8 -26 19 -66 25 -90 13 -50 17 -52 131
		-82 l86 -23 71 54 c80 61 77 48 45 189 l-14 65 -99 36 -98 35 -81 -68z"/>
		<path d="M2780 3887 c4 -44 13 -63 54 -115 27 -34 52 -62 55 -62 4 0 4 27 1
		59 -5 54 -10 65 -55 114 -28 30 -52 55 -55 56 -3 1 -3 -23 0 -52z"/>
		<path d="M1816 3828 l-34 -73 78 -78 77 -77 34 14 c19 8 55 23 81 34 l46 20
		-25 84 c-14 46 -29 87 -33 91 -4 5 -41 17 -81 28 -41 11 -82 22 -91 25 -14 4
		-25 -10 -52 -68z"/>
		<path d="M4355 3799 c-89 -58 -289 -92 -540 -93 -162 -1 -195 2 -224 17 -19 9
		-35 16 -36 15 -2 -2 0 -18 2 -37 9 -57 46 -66 258 -66 196 1 329 18 465 61 93
		29 119 50 112 93 -2 17 -5 31 -6 30 0 0 -14 -9 -31 -20z"/>
		<path d="M2765 3731 c-5 -15 9 -39 57 -100 35 -44 66 -80 70 -80 4 -1 5 12 3
		28 -3 24 -58 103 -115 165 -4 4 -11 -1 -15 -13z"/>
		<path d="M1574 3685 c-9 -22 -41 -98 -71 -169 -30 -71 -70 -175 -88 -230 l-33
		-101 194 -3 194 -2 0 -80 c0 -47 -4 -80 -10 -80 -5 0 -19 -9 -30 -20 -24 -24
		-26 -77 -4 -108 30 -43 41 -27 47 66 15 212 20 263 26 266 20 11 62 16 56 6
		-8 -14 11 -13 68 5 28 8 47 10 47 4 0 -13 25 1 84 46 45 34 72 47 48 23 -26
		-26 -10 -28 20 -3 26 22 37 25 67 20 48 -9 68 -21 88 -53 10 -15 21 -29 25
		-32 10 -7 57 -191 70 -272 11 -71 22 -82 51 -50 36 39 20 110 -31 136 -26 14
		-29 22 -47 133 -15 100 -22 122 -45 144 l-26 27 55 12 c59 12 207 78 197 87
		-11 11 -137 -19 -200 -47 l-67 -31 -122 17 c-133 18 -164 20 -217 12 -42 -7
		-67 5 -142 66 -60 49 -113 115 -158 198 l-29 53 -17 -40z"/>
		<path d="M1660 3715 c0 -36 99 -166 165 -218 46 -36 61 -42 90 -39 22 3 34 9
		31 16 -3 6 -10 28 -17 49 -9 26 -39 63 -96 118 -79 74 -87 79 -129 79 -24 0
		-44 -2 -44 -5z"/>
		<path d="M2683 3681 c-12 -15 -25 -46 -29 -67 -8 -49 -4 -44 35 34 33 65 30
		82 -6 33z"/>
		<path d="M2446 3638 c-55 -42 -66 -55 -61 -72 3 -12 8 -33 11 -48 7 -32 12
		-33 118 -17 81 12 79 10 91 84 3 22 8 47 11 56 3 12 -8 21 -39 33 -23 9 -48
		16 -54 16 -5 0 -41 -23 -77 -52z"/>
		<path d="M4671 3658 c-1 -9 -11 -24 -23 -32 -12 -9 -18 -16 -12 -16 17 0 47
		38 41 52 -4 9 -6 7 -6 -4z"/>
		<path d="M2762 3624 c4 -19 120 -163 132 -164 15 0 -3 31 -62 105 -56 73 -77
		90 -70 59z"/>
		<path d="M2050 3597 c-41 -17 -77 -32 -79 -33 -1 -2 4 -25 13 -52 l17 -49 102
		-30 103 -29 75 31 c69 30 74 34 73 61 -1 16 -7 41 -12 55 -10 26 -18 29 -202
		73 -8 2 -49 -10 -90 -27z"/>
		<path d="M2720 3550 c-12 -23 -16 -18 95 -148 38 -45 72 -82 75 -82 3 0 7 13
		8 29 2 24 -13 48 -79 125 -45 53 -83 96 -85 96 -2 0 -8 -9 -14 -20z"/>
		<path d="M2673 3472 l-21 -38 116 -129 117 -129 6 39 c4 21 4 48 0 60 -5 20
		-179 233 -191 234 -3 1 -15 -16 -27 -37z"/>
		<path d="M2642 3398 c3 -19 198 -231 206 -224 4 5 -35 51 -171 200 -21 23 -36
		34 -35 24z"/>
		<path d="M2596 3324 c-8 -22 105 -140 140 -147 13 -2 24 -2 24 1 0 6 -141 156
		-151 160 -3 2 -10 -5 -13 -14z"/>
		<path d="M2498 3293 c-28 -7 -22 -17 35 -65 36 -32 63 -47 90 -50 20 -2 37 -1
		37 2 0 3 -26 31 -58 63 -55 55 -66 60 -104 50z"/>
		<path d="M2357 3254 c10 -28 80 -72 121 -76 23 -2 42 -1 42 2 0 3 -19 25 -43
		48 -38 37 -47 42 -83 39 -26 -1 -40 -6 -37 -13z"/>
		<path d="M2086 3225 c-44 -47 -38 -88 7 -48 11 11 34 17 58 17 48 -2 50 10 7
		36 -42 25 -44 25 -72 -5z"/>
		<path d="M1912 3200 c-31 -29 -27 -40 12 -33 19 3 42 1 52 -5 21 -12 29 -46 8
		-38 -22 9 -16 -20 8 -36 21 -14 20 -16 -41 -48 -73 -39 -105 -74 -138 -150
		-33 -74 -39 -85 -51 -83 -24 5 -454 4 -460 -1 -3 -4 -8 -91 -10 -194 -5 -195
		9 -342 45 -479 l17 -61 60 -11 c114 -21 321 -49 329 -44 4 2 7 26 7 53 0 47
		-1 48 -44 66 -42 17 -45 21 -48 61 -2 24 0 43 3 43 4 0 26 -7 49 -15 24 -8 45
		-14 46 -12 2 2 6 29 10 60 l7 57 -61 0 -60 0 -4 34 -4 34 65 6 c60 5 66 4 96
		-23 18 -16 38 -30 44 -32 7 -3 7 -55 -1 -172 -6 -92 -9 -169 -7 -171 2 -2 18
		-7 35 -10 l31 -7 6 53 c4 29 7 104 7 166 0 61 3 112 6 112 3 0 25 -5 48 -11
		43 -11 43 -11 50 -62 3 -29 6 -100 6 -159 l0 -107 43 -5 c23 -3 66 -7 95 -10
		62 -6 59 -19 37 179 -20 174 -22 161 32 179 25 9 47 15 48 13 1 -1 14 -85 29
		-186 15 -102 29 -188 32 -193 8 -12 74 -10 74 3 0 6 -16 100 -36 208 l-36 197
		38 38 c34 34 44 38 106 43 l68 6 0 -35 c0 -32 -3 -36 -31 -42 -17 -3 -44 -6
		-60 -6 -20 0 -29 -5 -29 -16 0 -20 21 -104 27 -104 2 0 22 9 44 21 23 11 42
		19 44 17 2 -2 6 -19 10 -39 6 -35 5 -37 -39 -63 -52 -30 -49 -10 -23 -171 l12
		-70 90 -6 c50 -4 134 -7 188 -8 l97 -1 0 443 0 442 -239 0 c-269 0 -262 -2
		-303 80 -36 71 -77 113 -140 144 -34 17 -71 31 -84 31 -29 0 -38 14 -19 30 18
		15 3 50 -22 50 -12 0 -13 -3 -4 -13 9 -11 4 -14 -26 -13 -32 2 -36 5 -37 28
		-2 34 -33 68 -61 68 -12 0 -31 -9 -43 -20z m488 -437 c0 -45 -5 -40 -13 10 -3
		22 -2 35 4 32 5 -4 9 -22 9 -42z m-620 -25 c0 -32 -3 -39 -10 -28 -13 20 -13
		70 0 70 6 0 10 -19 10 -42z m367 -128 c8 -25 30 -77 48 -117 26 -56 30 -73 19
		-77 -26 -10 -191 -19 -227 -12 -33 6 -35 9 -27 30 5 13 14 69 21 125 l12 102
		70 -3 69 -3 15 -45z m260 -164 c-7 -18 -103 -62 -179 -82 -94 -25 -254 -22
		-343 6 -74 24 -98 37 -103 58 -3 15 -5 16 64 -10 50 -18 81 -22 209 -22 132
		-1 159 2 222 23 39 13 84 31 100 41 28 17 40 12 30 -14z m231 25 c7 -4 14 -15
		16 -24 1 -9 11 -26 22 -38 13 -15 19 -36 19 -71 0 -43 -4 -53 -33 -79 -60 -54
		-70 -40 -73 103 -2 102 12 133 49 109z m-1036 -68 c18 -21 32 -233 15 -233
		-28 0 -77 35 -92 67 -19 39 -14 93 11 114 8 7 13 18 10 25 -5 13 18 44 33 44
		4 0 15 -8 23 -17z"/>
		<path d="M3891 3098 c-33 -70 -82 -253 -74 -274 4 -12 -40 -14 -276 -11 l-281
		2 0 -443 0 -443 120 2 c119 1 120 1 120 25 0 28 8 30 25 7 10 -14 13 -11 18
		23 4 21 18 57 32 79 22 36 24 37 25 16 l0 -25 33 31 c30 29 139 103 151 103 3
		0 -11 -21 -31 -47 -35 -46 -110 -190 -102 -197 2 -2 33 -1 69 2 l65 5 39 118
		c22 65 46 135 55 155 l17 37 38 -124 c22 -68 41 -130 44 -136 3 -9 -6 -13 -28
		-13 -21 0 -30 -4 -27 -12 3 -9 21 -12 58 -10 82 5 331 32 339 37 4 3 11 45 15
		94 6 81 9 90 31 100 14 6 26 11 28 11 2 0 0 -21 -5 -47 -4 -27 -5 -49 -4 -51
		5 -5 75 117 75 131 1 7 14 28 30 47 39 45 39 32 -4 -137 -27 -104 -31 -133
		-20 -133 20 0 208 28 276 41 l56 11 16 67 c39 169 41 189 41 423 0 130 -2 239
		-5 242 -3 3 -62 8 -130 11 l-125 5 -28 -54 c-46 -89 -115 -97 -181 -23 l-28
		32 20 -35 c11 -20 38 -45 62 -57 23 -12 49 -31 56 -41 24 -34 36 -113 28 -186
		-6 -67 -8 -72 -56 -118 -56 -54 -135 -85 -191 -73 -85 19 -189 107 -255 217
		l-32 54 50 135 c27 74 50 136 50 139 0 3 -56 5 -125 5 -69 -1 -125 1 -125 3 0
		6 120 151 130 157 5 3 37 -12 70 -35 34 -22 63 -40 65 -40 1 0 10 19 20 42 19
		47 20 46 -61 104 -29 21 -29 22 -10 43 11 12 17 23 15 25 -6 5 -131 46 -140
		46 -5 0 -21 -28 -38 -62z m123 -687 c32 -47 36 -58 27 -83 -8 -22 -6 -38 9
		-74 11 -25 20 -52 20 -59 0 -8 4 -16 9 -19 5 -3 15 19 22 49 l14 54 39 -32 39
		-33 -23 -95 c-17 -69 -27 -95 -39 -96 -9 -1 -25 -4 -37 -8 -17 -5 -22 0 -33
		37 -7 24 -35 118 -62 211 -40 136 -48 171 -39 188 7 11 13 19 15 17 2 -1 19
		-27 39 -57z"/>
		<path d="M4530 3096 c0 -9 5 -16 10 -16 6 0 10 4 10 9 0 6 -4 13 -10 16 -5 3
		-10 -1 -10 -9z"/>
		<path d="M4280 3081 c-12 -24 -13 -51 0 -71 7 -12 12 -12 22 -2 10 10 10 14
		-1 21 -9 6 -12 19 -8 40 7 35 2 40 -13 12z"/>
		<path d="M4480 3090 c0 -5 5 -10 10 -10 6 0 10 5 10 10 0 6 -4 10 -10 10 -5 0
		-10 -4 -10 -10z"/>
		<path d="M4500 3045 c0 -8 5 -15 10 -15 6 0 10 7 10 15 0 8 -4 15 -10 15 -5 0
		-10 -7 -10 -15z"/>
		<path d="M4771 3023 c-10 -26 -10 -27 4 -9 8 11 15 23 15 28 0 15 -7 8 -19
		-19z"/>
		<path d="M4672 2985 c-17 -37 -14 -45 4 -12 9 16 14 31 11 33 -2 2 -9 -7 -15
		-21z"/>
		<path d="M4731 2943 c-10 -26 -10 -27 4 -9 8 11 15 23 15 28 0 15 -7 8 -19
		-19z"/>
		<path d="M4637 2905 c-24 -50 -20 -58 4 -12 11 22 19 41 17 43 -3 2 -12 -12
		-21 -31z"/>
		<path d="M3999 2893 l-34 -38 38 34 c20 19 37 36 37 38 0 8 -8 0 -41 -34z"/>
		<path d="M4695 2870 c-9 -16 -13 -30 -11 -30 3 0 12 14 21 30 9 17 13 30 11
		30 -3 0 -12 -13 -21 -30z"/>
		<path d="M4349 2791 c-13 -11 -22 -22 -19 -24 3 -3 19 6 35 19 17 13 25 24 19
		24 -7 0 -22 -9 -35 -19z"/>
		<path d="M1010 2171 l-65 -6 91 -23 c50 -12 94 -22 96 -22 2 0 3 14 0 30 -5
		33 2 32 -122 21z"/>
		<path d="M5025 2165 c-3 -8 -7 -22 -10 -30 -2 -8 0 -15 6 -15 14 0 180 42 177
		45 -2 1 -40 5 -86 8 -68 5 -84 4 -87 -8z"/>
		<path d="M1073 1994 c3 -10 9 -36 13 -57 3 -20 12 -41 20 -45 8 -4 27 -65 44
		-137 34 -148 34 -149 19 -139 -9 5 -10 -1 -5 -21 4 -15 10 -40 13 -57 7 -35
		22 -44 96 -52 63 -8 63 -9 47 59 -5 22 -15 44 -23 50 -7 5 -16 24 -20 42 l-6
		31 53 -5 c52 -5 53 -5 74 31 21 36 22 39 6 113 -12 62 -23 85 -55 123 -39 46
		-41 47 -122 59 -45 6 -99 14 -121 18 -34 5 -38 4 -33 -13z m219 -120 c18 -17
		32 -76 23 -102 -4 -14 -13 -17 -40 -14 -42 5 -45 9 -61 85 l-12 59 37 -7 c20
		-4 43 -13 53 -21z"/>
		<path d="M4925 1990 c-55 -10 -181 -28 -280 -41 -99 -12 -183 -27 -186 -32
		-12 -17 -19 -101 -10 -107 14 -8 -27 -262 -44 -276 -8 -6 -17 -34 -21 -64 l-7
		-53 59 7 c32 4 93 12 135 17 l75 11 12 57 c18 84 18 84 -25 76 -20 -4 -46 -13
		-57 -21 -36 -25 -52 -18 -48 21 4 32 22 61 22 36 0 -13 49 -14 68 -2 10 6 42
		127 42 159 0 7 -86 -13 -93 -22 -5 -6 -5 5 -1 24 3 19 12 38 18 42 16 11 46
		10 46 -1 0 -5 35 -8 83 -5 69 4 85 8 100 27 l19 22 -5 -25 c-3 -14 -15 -74
		-27 -135 -12 -60 -28 -114 -34 -120 -14 -11 -40 -104 -32 -112 3 -3 35 -2 72
		3 l68 9 13 54 c9 35 11 56 4 60 -6 4 1 54 19 136 16 72 30 133 30 138 0 4 4 7
		10 7 5 0 7 -7 3 -16 -5 -14 0 -15 38 -9 24 4 45 9 47 10 6 5 32 110 32 128 0
		21 -12 21 -145 -3z"/>
		<path d="M1380 1954 c0 -22 25 -101 34 -109 18 -15 68 -267 55 -276 -8 -4 -7
		-22 1 -62 l13 -55 96 -12 c53 -6 113 -14 135 -17 l38 -6 -6 44 c-16 100 -14
		97 -59 101 -23 2 -43 1 -45 -4 -6 -13 -52 -9 -56 5 -11 33 -16 71 -9 60 5 -7
		28 -15 52 -19 l43 -7 -7 59 c-11 89 -18 100 -61 107 -23 4 -41 2 -45 -4 -6
		-11 -19 23 -19 52 0 12 7 15 28 11 15 -3 30 -9 33 -14 3 -5 25 -12 49 -15 l43
		-6 -7 49 c-14 97 -3 89 -145 107 -137 18 -161 20 -161 11z"/>
		<path d="M1693 1890 c4 -18 7 -41 7 -51 0 -9 7 -25 16 -34 24 -24 65 -275 45
		-275 -8 0 -9 -14 -5 -42 12 -76 5 -73 201 -91 254 -24 237 -27 229 31 -4 26
		-10 55 -12 65 -5 16 -1 18 28 15 27 -2 33 -7 34 -28 0 -14 1 -44 2 -66 l2 -41
		78 -6 c42 -4 127 -9 187 -13 l111 -6 28 42 28 43 -7 166 -7 166 -34 42 c-38
		46 -47 49 -196 56 l-78 4 0 -54 c0 -36 4 -55 14 -59 9 -3 16 -31 20 -82 3 -42
		9 -103 13 -134 5 -56 5 -58 -18 -58 -22 0 -28 12 -69 135 -25 74 -42 136 -37
		138 5 1 6 28 2 59 l-7 57 -67 6 c-36 3 -83 8 -105 11 l-38 5 7 -58 c4 -32 11
		-61 16 -64 8 -5 -10 -170 -26 -246 -7 -28 -21 -30 -28 -3 -4 16 -14 20 -46 20
		-27 0 -41 -4 -41 -13 0 -9 -9 -12 -29 -9 -29 4 -29 5 -45 115 -9 62 -19 122
		-22 135 -2 13 0 22 7 22 12 0 4 99 -9 112 -4 3 -40 10 -81 14 l-74 7 6 -33z
		m855 -153 c6 -7 12 -69 14 -142 l3 -130 -31 -3 c-32 -3 -32 -3 -38 55 -3 32
		-8 97 -12 146 l-6 87 30 0 c16 0 34 -6 40 -13z m-339 -139 c1 -3 -7 -4 -17 -1
		-14 3 -17 12 -13 41 l4 37 13 -35 c7 -19 13 -38 13 -42z"/>
		<path d="M4320 1911 l-55 -6 -11 -55 c-8 -40 -8 -58 0 -65 6 -6 9 -28 6 -55
		l-5 -45 -23 65 c-54 150 -41 135 -113 135 l-64 0 -9 -53 c-7 -40 -6 -56 3 -61
		15 -9 -15 -262 -32 -273 -13 -8 -26 -107 -15 -114 5 -3 38 -2 73 1 70 8 69 6
		78 83 2 20 -1 36 -8 38 -11 5 -10 38 2 74 2 8 18 -28 35 -80 17 -52 32 -97 33
		-99 2 -2 31 0 64 4 l60 7 9 51 c5 31 5 57 -1 64 -12 17 21 255 38 268 9 8 35
		95 35 120 0 5 -18 5 -100 -4z"/>
		<path d="M3705 1861 l-80 -6 -1 -70 c-1 -50 -11 -104 -38 -190 -20 -65 -41
		-122 -47 -125 -5 -4 -13 -32 -16 -63 l-6 -57 59 0 c81 0 88 7 89 79 l0 61 40
		0 c30 0 36 -3 27 -12 -7 -7 -12 -36 -12 -65 l0 -53 39 0 c21 0 52 3 69 6 27 6
		30 10 36 57 4 27 3 53 -2 56 -11 7 -26 75 -43 182 -8 56 -8 82 0 97 6 11 11
		41 11 66 0 42 -2 46 -22 44 -13 -1 -59 -4 -103 -7z m17 -241 c3 -33 0 -40 -14
		-40 -15 0 -17 5 -12 28 14 65 20 68 26 12z"/>
		<path d="M2740 1811 c0 -22 5 -52 10 -67 8 -21 5 -54 -16 -148 -14 -67 -32
		-126 -39 -131 -8 -7 -11 -27 -8 -60 3 -28 5 -51 6 -51 1 -1 33 -5 71 -9 l68
		-7 -4 71 -4 71 31 0 32 0 -1 -67 -1 -68 73 -3 72 -3 0 61 c0 42 -4 60 -13 60
		-23 0 -73 223 -68 306 l3 71 -32 7 c-18 3 -66 6 -106 6 l-74 0 0 -39z m128
		-246 c-2 -1 -10 0 -19 4 -13 5 -14 12 -6 41 l10 35 9 -39 c4 -21 7 -40 6 -41z"/>
		<path d="M3203 1843 c-33 -4 -33 -5 -33 -59 0 -30 5 -54 10 -54 13 0 14 -267
		1 -272 -5 -1 -11 -28 -12 -58 l-4 -55 71 -3 71 -3 6 53 c3 34 1 57 -6 63 -12
		10 -19 97 -7 90 4 -2 24 -47 45 -99 l39 -96 63 0 63 0 0 60 c0 33 -3 60 -7 60
		-12 0 1 245 13 261 6 8 14 38 17 67 l6 52 -79 0 -80 0 0 -60 c0 -33 4 -60 10
		-60 6 0 10 -21 10 -47 0 -25 -3 -43 -7 -40 -3 4 -25 51 -49 104 -46 107 -48
		108 -141 96z"/>
		<path d="M3823 1158 c-6 -7 -14 -33 -18 -57 -10 -59 15 -52 32 9 13 45 5 72
		-14 48z"/>
		<path d="M3667 1153 c-14 -13 -6 -33 13 -33 13 0 20 7 20 20 0 19 -20 27 -33
		13z"/>
		<path d="M2636 1103 c8 -56 12 -65 25 -58 10 7 12 65 3 89 -3 9 -13 16 -21 16
		-11 0 -13 -9 -7 -47z"/>
		<path d="M2772 1098 c3 -46 6 -53 26 -56 20 -3 22 1 22 36 0 54 -8 72 -32 72
		-17 0 -19 -6 -16 -52z"/>
		<path d="M3380 1133 c0 -10 -3 -35 -6 -55 -5 -30 -3 -38 8 -38 9 0 18 13 22
		31 10 52 7 79 -9 79 -8 0 -15 -8 -15 -17z"/>
		<path d="M2847 788 c-13 -20 -13 -44 -2 -169 8 -82 19 -156 27 -168 10 -16 23
		-21 58 -21 67 0 70 9 63 189 -7 171 -8 174 -85 185 -42 6 -48 5 -61 -16z"/>
	</g>
</svg>